<svg xmlns="http://www.w3.org/2000/svg" width="1024" height="1024" viewBox="0 0 1024 1024"><defs><linearGradient id="bg" x2="1" y2="1"><stop stop-color="#093e3b"/><stop offset="1" stop-color="#087c67"/></linearGradient></defs><path fill="url(#bg)" d="M0 0h1024v1024H0z"/><path d="M292 214h298l142 142v392a62 62 0 0 1-62 62H292a62 62 0 0 1-62-62V276a62 62 0 0 1 62-62z" fill="#a5ffde"/><path d="M371 437h213a34 34 0 0 1 34 34v197a34 34 0 0 1-34 34H371a34 34 0 0 1-34-34V471a34 34 0 0 1 34-34z" fill="#075747"/><g stroke="#a5ffde" stroke-width="18"><path d="M431 437v265m94-265v265M337 524h281m-281 92h281"/></g><circle cx="764" cy="244" r="152" fill="#065247"/><g fill="none" stroke="#b6ffe7" stroke-width="25" stroke-linecap="round"><path d="M678 224q86-84 172 0m-138 42q52-50 104 0m-69 35q17-15 34 0"/></g></svg>